<svg width="16" height="13" viewBox="0 0 16 13" fill="none" xmlns="http://www.w3.org/2000/svg">
<path d="M1.55 3.1C2.40604 3.1 3.1 2.40604 3.1 1.55C3.1 0.69396 2.40604 0 1.55 0C0.693958 0 0 0.69396 0 1.55C0 2.40604 0.693958 3.1 1.55 3.1Z" fill="#B4B3FD"/>
<path d="M13.7917 3.1C14.6477 3.1 15.3417 2.40604 15.3417 1.55C15.3417 0.693959 14.6477 0 13.7917 0C12.9357 0 12.2417 0.693959 12.2417 1.55C12.2417 2.40604 12.9357 3.1 13.7917 3.1Z" fill="#B4B3FD"/>
<path d="M7.88233 3.10352C8.73934 3.10352 9.43408 2.40877 9.43408 1.55176C9.43408 0.694745 8.73934 0 7.88233 0C7.02531 0 6.33057 0.694745 6.33057 1.55176C6.33057 2.40877 7.02531 3.10352 7.88233 3.10352Z" fill="#B4B3FD"/>
<path d="M7.88233 12.2041C8.73934 12.2041 9.43408 11.5094 9.43408 10.6523C9.43408 9.79533 8.73934 9.10059 7.88233 9.10059C7.02531 9.10059 6.33057 9.79533 6.33057 10.6523C6.33057 11.5094 7.02531 12.2041 7.88233 12.2041Z" fill="#B4B3FD"/>
<path d="M4.81543 7.70801C5.67244 7.70801 6.36719 7.01326 6.36719 6.15625C6.36719 5.29924 5.67244 4.60449 4.81543 4.60449C3.95841 4.60449 3.26367 5.29924 3.26367 6.15625C3.26367 7.01326 3.95841 7.70801 4.81543 7.70801Z" fill="#B4B3FD"/>
<path d="M10.9487 7.70801C11.8057 7.70801 12.5005 7.01326 12.5005 6.15625C12.5005 5.29924 11.8057 4.60449 10.9487 4.60449C10.0917 4.60449 9.39697 5.29924 9.39697 6.15625C9.39697 7.01326 10.0917 7.70801 10.9487 7.70801Z" fill="#B4B3FD"/>
</svg>
